<?xml version="1.0" encoding="utf-8"?>
<!-- Generator: Adobe Illustrator 24.0.3, SVG Export Plug-In . SVG Version: 6.00 Build 0)  -->
<svg version="1.1" id="레이어_1" xmlns="http://www.w3.org/2000/svg" xmlns:xlink="http://www.w3.org/1999/xlink" x="0px"
	 y="0px" viewBox="0 0 110.8 24.8" style="enable-background:new 0 0 110.8 24.8;" xml:space="preserve">
<style type="text/css">
	.st0{fill:#FFFFFF;}
</style>
<g>
	<path class="st0" d="M0,20.4l3.9-2.9c0.8,1.6,2.1,2.4,3.2,2.4c1.9,0,2.9-0.9,2.9-4.1V0.5h5.8v15.8c0,4.7-2.5,8.6-7.8,8.6
		C4.2,24.8,1.7,23.4,0,20.4z"/>
	<path class="st0" d="M16.4,21.4l3.2-4c1.7,1.4,3.9,2.4,5.8,2.4c2.1,0,3.1-0.8,3.1-2.1c0-1.4-1.3-1.8-3.4-2.7l-3.1-1.3
		c-2.5-1-4.9-3.1-4.9-6.6c0-4,3.6-7.2,8.7-7.2c2.8,0,5.7,1.1,7.8,3.2l-2.9,3.6c-1.6-1.2-3.1-1.8-4.9-1.8c-1.8,0-2.9,0.7-2.9,2
		c0,1.3,1.5,1.8,3.6,2.7l3,1.2c3,1.2,4.7,3.2,4.7,6.6c0,4-3.3,7.5-9.1,7.5C22.2,24.8,18.9,23.7,16.4,21.4z"/>
	<path class="st0" d="M34.2,12.5c0-8,5.3-12.5,11.4-12.5c3.1,0,5.6,1.4,7.3,3.1l-3,3.7c-1.2-1.1-2.4-1.9-4.1-1.9
		c-3.1,0-5.6,2.8-5.6,7.4c0,4.8,2.2,7.5,5.6,7.5c1.9,0,3.4-1,4.6-2.2l3,3.6c-2,2.3-4.7,3.5-7.8,3.5C39.3,24.8,34.2,20.6,34.2,12.5z"
		/>
	<path class="st0" d="M51,12.3C51,4.4,55.5,0,62,0c6.5,0,11,4.5,11,12.3c0,7.8-4.4,12.5-11,12.5C55.5,24.8,51,20.1,51,12.3z
		 M67.1,12.3c0-4.6-2-7.4-5.1-7.4s-5.1,2.7-5.1,7.4c0,4.7,1.9,7.6,5.1,7.6S67.1,17,67.1,12.3z"/>
	<path class="st0" d="M74.2,0.5H80l6,11.5l2.3,5.3h0.2c-0.3-2.5-0.8-6-0.8-8.8V0.5h5.5v23.9h-5.9l-5.9-11.5l-2.3-5.2h-0.2
		c0.3,2.7,0.7,6,0.7,8.8v7.9h-5.5V0.5z"/>
	<path class="st0" d="M95.5,0.5h15.3v4.8h-9.5v5.2h8.2v4.8h-8.2v9.1h-5.8V0.5z"/>
</g>
</svg>
