<?xml version="1.0" encoding="utf-8"?>
<!-- Generator: Adobe Illustrator 24.0.3, SVG Export Plug-In . SVG Version: 6.00 Build 0)  -->
<svg version="1.1" id="레이어_1" xmlns="http://www.w3.org/2000/svg" xmlns:xlink="http://www.w3.org/1999/xlink" x="0px"
	 y="0px" viewBox="0 0 95.9 24.8" style="enable-background:new 0 0 95.9 24.8;" xml:space="preserve">
<style type="text/css">
	.st0{fill:#FFFFFF;}
</style>
<g>
	<path class="st0" d="M0,0.5h5.8v9.5h0.1l6.8-9.5h6.3L11.7,10l8.6,14.3H14l-5.6-9.8l-2.6,3.5v6.3H0V0.5z"/>
	<path class="st0" d="M17.4,12.3c0-7.8,4.4-12.3,11-12.3c6.5,0,11,4.5,11,12.3c0,7.8-4.4,12.5-11,12.5
		C21.8,24.8,17.4,20.1,17.4,12.3z M33.5,12.3c0-4.6-2-7.4-5.1-7.4s-5.1,2.7-5.1,7.4c0,4.7,1.9,7.6,5.1,7.6S33.5,17,33.5,12.3z"/>
	<path class="st0" d="M53.5,24.4L49.1,16h-2.8v8.4h-5.8V0.5h8.8c5.1,0,9.4,1.7,9.4,7.5c0,3.5-1.6,5.8-4.1,6.9l5.3,9.5H53.5z
		 M46.3,11.4h2.6c2.7,0,4.2-1.2,4.2-3.4c0-2.3-1.4-3-4.2-3h-2.6V11.4z"/>
	<path class="st0" d="M60.1,0.5h15.2v4.8h-9.4v4.4h8v4.8h-8v5.1h9.8v4.8H60.1V0.5z"/>
	<path class="st0" d="M88.5,18.9h-7.1L80,24.4h-5.9l7.4-23.9h6.9l7.4,23.9h-6L88.5,18.9z M87.4,14.4l-0.5-2
		c-0.6-2.4-1.3-5.2-1.9-7.7h-0.1c-0.6,2.5-1.2,5.3-1.8,7.7l-0.5,2H87.4z"/>
</g>
</svg>
