<?xml version="1.0" encoding="utf-8"?>
<!-- Generator: Adobe Illustrator 24.0.3, SVG Export Plug-In . SVG Version: 6.00 Build 0)  -->
<svg version="1.1" id="레이어_1" xmlns="http://www.w3.org/2000/svg" xmlns:xlink="http://www.w3.org/1999/xlink" x="0px"
	 y="0px" viewBox="0 0 100 100" style="enable-background:new 0 0 100 100;" xml:space="preserve">
<g>
	<rect x="-120" style="fill:#2524EE;" width="100" height="100"/>
</g>
<text transform="matrix(1 0 0 1 -96 96.042)" style="fill:#FFFF00; font-family:'NotoSansCJKkr-Black-KSCpc-EUC-H'; font-size:70.7726px; letter-spacing:-7;">JS</text>
<text transform="matrix(1 0 0 1 -97.3333 99.042)" style="fill:#00FFFF; font-family:'NotoSansCJKkr-Black-KSCpc-EUC-H'; font-size:70.7726px; letter-spacing:-7;">JS</text>
<text transform="matrix(1 0 0 1 -100.6667 95.042)" style="fill:#FF00FF; font-family:'NotoSansCJKkr-Black-KSCpc-EUC-H'; font-size:70.7726px; letter-spacing:-7;">JS</text>
<text transform="matrix(1 0 0 1 -99 98.042)" style="fill:#FFFFFF; font-family:'NotoSansCJKkr-Black-KSCpc-EUC-H'; font-size:70.7726px; letter-spacing:-7;">JS</text>
<g>
	<rect style="fill:#FFFFFF;" width="100" height="100"/>
</g>
<g>
	<path style="fill:#FFFF00;" d="M25.1,87.3l8.6-6.4c1.8,3.6,4.5,5.2,7.1,5.2c4.1,0,6.3-2.1,6.3-8.9V43.4h12.7v34.8
		c0,10.3-5.4,18.8-17.3,18.8C34.3,97,28.9,93.8,25.1,87.3z"/>
	<path style="fill:#FFFF00;" d="M61.2,89.5l7.1-8.7c3.8,3.2,8.6,5.4,12.8,5.4c4.7,0,6.9-1.8,6.9-4.6c0-3-2.9-4-7.4-5.9l-6.7-2.8
		c-5.5-2.2-10.7-6.8-10.7-14.4c0-8.8,7.9-15.9,19.1-15.9c6.1,0,12.5,2.3,17.1,6.9l-6.3,7.9c-3.5-2.6-6.7-4-10.8-4
		c-3.9,0-6.3,1.6-6.3,4.4c0,2.9,3.3,4,8,5.9l6.6,2.6c6.5,2.6,10.4,7,10.4,14.4c0,8.8-7.4,16.5-20.1,16.5C74,97,66.6,94.5,61.2,89.5z
		"/>
</g>
<g>
	<path style="fill:#00FFFF;" d="M23.7,90.3l8.6-6.4c1.8,3.6,4.5,5.2,7.1,5.2c4.1,0,6.3-2.1,6.3-8.9V46.4h12.7v34.8
		c0,10.3-5.4,18.8-17.3,18.8C32.9,100,27.5,96.8,23.7,90.3z"/>
	<path style="fill:#00FFFF;" d="M59.8,92.5l7.1-8.7c3.8,3.2,8.6,5.4,12.8,5.4c4.7,0,6.9-1.8,6.9-4.6c0-3-2.9-4-7.4-5.9l-6.7-2.8
		C67,73.6,61.8,69,61.8,61.3c0-8.8,7.9-15.9,19.1-15.9c6.1,0,12.5,2.3,17.1,6.9l-6.3,7.9c-3.5-2.6-6.7-4-10.8-4
		c-3.9,0-6.3,1.6-6.3,4.4c0,2.9,3.3,4,8,5.9l6.6,2.6c6.5,2.6,10.4,7,10.4,14.4c0,8.8-7.4,16.5-20.1,16.5
		C72.6,100,65.3,97.5,59.8,92.5z"/>
</g>
<g>
	<path style="fill:#FF00FF;" d="M20.4,86.3l8.6-6.4c1.8,3.6,4.5,5.2,7.1,5.2c4.1,0,6.3-2.1,6.3-8.9V42.4h12.7v34.8
		c0,10.3-5.4,18.8-17.3,18.8C29.6,96,24.2,92.8,20.4,86.3z"/>
	<path style="fill:#FF00FF;" d="M56.5,88.5l7.1-8.7c3.8,3.2,8.6,5.4,12.8,5.4c4.7,0,6.9-1.8,6.9-4.6c0-3-2.9-4-7.4-5.9l-6.7-2.8
		c-5.5-2.2-10.7-6.8-10.7-14.4c0-8.8,7.9-15.9,19.1-15.9c6.1,0,12.5,2.3,17.1,6.9l-6.3,7.9c-3.5-2.6-6.7-4-10.8-4
		c-3.9,0-6.3,1.6-6.3,4.4c0,2.9,3.3,4,8,5.9l6.6,2.6c6.5,2.6,10.4,7,10.4,14.4c0,8.8-7.4,16.5-20.1,16.5
		C69.3,96,61.9,93.5,56.5,88.5z"/>
</g>
<g>
	<path style="fill:#2524EE;" d="M22.1,89.3l8.6-6.4c1.8,3.6,4.5,5.2,7.1,5.2c4.1,0,6.3-2.1,6.3-8.9V45.4h12.7v34.8
		c0,10.3-5.4,18.8-17.3,18.8C31.3,99,25.9,95.8,22.1,89.3z"/>
	<path style="fill:#2524EE;" d="M58.2,91.5l7.1-8.7c3.8,3.2,8.6,5.4,12.8,5.4c4.7,0,6.9-1.8,6.9-4.6c0-3-2.9-4-7.4-5.9l-6.7-2.8
		c-5.5-2.2-10.7-6.8-10.7-14.4c0-8.8,7.9-15.9,19.1-15.9c6.1,0,12.5,2.3,17.1,6.9l-6.3,7.9c-3.5-2.6-6.7-4-10.8-4
		c-3.9,0-6.3,1.6-6.3,4.4c0,2.9,3.3,4,8,5.9l6.6,2.6c6.5,2.6,10.4,7,10.4,14.4c0,8.8-7.4,16.5-20.1,16.5C71,99,63.6,96.5,58.2,91.5z
		"/>
</g>
</svg>
