<?xml version="1.0" encoding="utf-8"?>
<!-- Generator: Adobe Illustrator 24.0.3, SVG Export Plug-In . SVG Version: 6.00 Build 0)  -->
<svg version="1.1" id="레이어_1" xmlns="http://www.w3.org/2000/svg" xmlns:xlink="http://www.w3.org/1999/xlink" x="0px"
	 y="0px" viewBox="0 0 66.3 24.8" style="enable-background:new 0 0 66.3 24.8;" xml:space="preserve">
<style type="text/css">
	.st0{fill:#FFFFFF;}
</style>
<g>
	<path class="st0" d="M0.3,21.1c6-5.4,10-9.8,10-13.3c0-2.2-1.2-3.4-3.1-3.4c-1.6,0-2.9,1.1-4.1,2.3L0,3.7C2.3,1.2,4.5,0,7.9,0
		c4.6,0,7.8,3,7.8,7.5c0,4.1-3.5,8.7-7.2,12.4c1.2-0.2,2.8-0.3,3.9-0.3h4.4v4.8H0.3V21.1z"/>
	<path class="st0" d="M16.6,12.3C16.6,4.1,20,0,25.1,0s8.5,4.1,8.5,12.3c0,8.2-3.4,12.5-8.5,12.5S16.6,20.5,16.6,12.3z M28.2,12.3
		c0-6.5-1.4-7.9-3.1-7.9c-1.7,0-3.1,1.4-3.1,7.9c0,6.6,1.4,8.1,3.1,8.1C26.8,20.4,28.2,18.8,28.2,12.3z"/>
	<path class="st0" d="M33,21.1c6-5.4,10-9.8,10-13.3c0-2.2-1.2-3.4-3.1-3.4c-1.6,0-2.9,1.1-4.1,2.3l-3.1-3.1C35.1,1.2,37.3,0,40.7,0
		c4.6,0,7.8,3,7.8,7.5c0,4.1-3.5,8.7-7.2,12.4c1.2-0.2,2.8-0.3,3.9-0.3h4.4v4.8H33V21.1z"/>
	<path class="st0" d="M49.4,12.3C49.4,4.1,52.8,0,57.8,0s8.5,4.1,8.5,12.3c0,8.2-3.4,12.5-8.5,12.5S49.4,20.5,49.4,12.3z M60.9,12.3
		c0-6.5-1.4-7.9-3.1-7.9c-1.7,0-3.1,1.4-3.1,7.9c0,6.6,1.4,8.1,3.1,8.1C59.5,20.4,60.9,18.8,60.9,12.3z"/>
</g>
</svg>
